<svg width="0" height="0" class="hidden">
  <symbol xmlns="http://www.w3.org/2000/svg" viewBox="0 0 52 52" id="whatsapp">
    <path d="M26 0C11.663 0 0 11.663 0 26c0 4.891 1.359 9.639 3.937 13.762C2.91 43.36 1.055 50.166 1.035 50.237a.996.996 0 00.27.981c.263.253.643.343.989.237l10.306-3.17A25.936 25.936 0 0026 52c14.337 0 26-11.663 26-26S40.337 0 26 0zm0 50a23.94 23.94 0 01-12.731-3.651 1 1 0 00-.825-.108l-8.999 2.77a991.452 991.452 0 012.538-9.13c.08-.278.035-.578-.122-.821A23.907 23.907 0 012 26C2 12.767 12.767 2 26 2s24 10.767 24 24-10.767 24-24 24z"></path>
    <path d="M42.985 32.126c-1.846-1.025-3.418-2.053-4.565-2.803-.876-.572-1.509-.985-1.973-1.218-1.297-.647-2.28-.19-2.654.188a1 1 0 00-.125.152c-1.347 2.021-3.106 3.954-3.621 4.058-.595-.093-3.38-1.676-6.148-3.981-2.826-2.355-4.604-4.61-4.865-6.146C20.847 20.51 21.5 19.336 21.5 18c0-1.377-3.212-7.126-3.793-7.707-.583-.582-1.896-.673-3.903-.273a1.01 1.01 0 00-.511.273c-.243.243-5.929 6.04-3.227 13.066 2.966 7.711 10.579 16.674 20.285 18.13 1.103.165 2.137.247 3.105.247 5.71 0 9.08-2.873 10.029-8.572a.996.996 0 00-.5-1.038zm-12.337 7.385c-10.264-1.539-16.729-11.708-18.715-16.87-1.97-5.12 1.663-9.685 2.575-10.717.742-.126 1.523-.179 1.849-.128.681.947 3.039 5.402 3.143 6.204 0 .525-.171 1.256-2.207 3.293A.996.996 0 0017 22c0 5.236 11.044 12.5 13 12.5 1.701 0 3.919-2.859 5.182-4.722a.949.949 0 01.371.116c.36.181.984.588 1.773 1.104 1.042.681 2.426 1.585 4.06 2.522-.742 3.57-2.816 7.181-10.738 5.991z"></path>
  </symbol>
  <symbol xmlns="http://www.w3.org/2000/svg" viewBox="0 0 512 512" id="facebook">
    <path d="M437.02 74.98C388.667 26.629 324.38 0 256 0S123.333 26.629 74.98 74.98C26.629 123.333 0 187.62 0 256s26.629 132.667 74.98 181.02C123.333 485.371 187.62 512 256 512s132.667-26.629 181.02-74.98C485.371 388.667 512 324.38 512 256s-26.629-132.667-74.98-181.02zm-10.607 351.433c-34.091 34.091-76.596 56.708-122.832 65.917V327.629h34.338a15.494 15.494 0 0015.053-11.753l12.025-48.097c1.167-4.668.137-9.52-2.824-13.312s-7.418-5.967-12.229-5.967h-53.862a7.5 7.5 0 000 15h53.862c.075 0 .251 0 .407.199.155.198.112.37.094.443l-12.024 48.097a.517.517 0 01-.501.391h-41.838a7.5 7.5 0 00-7.5 7.5v174.684A245.007 245.007 0 01256 497c-64.374 0-124.894-25.068-170.413-70.587S15 320.374 15 256 40.068 131.106 85.587 85.587 191.626 15 256 15s124.894 25.068 170.413 70.587S497 191.626 497 256s-25.068 124.894-70.587 170.413z"></path>
    <path d="M352.193 96.193h-48.097c-52.757 0-95.677 42.921-95.677 95.678V248.5h-48.613c-8.556 0-15.516 6.96-15.516 15.516v48.097c0 8.556 6.96 15.516 15.516 15.516h48.613V464.42a7.5 7.5 0 0015 0V320.129a7.5 7.5 0 00-7.5-7.5h-56.113a.516.516 0 01-.516-.516v-48.097c0-.285.231-.516.516-.516h56.113a7.5 7.5 0 007.5-7.5v-64.129c0-44.486 36.192-80.678 80.677-80.678h48.097c.285 0 .516.231.516.516v48.097a.516.516 0 01-.516.516h-32.064c-17.396 0-31.548 14.152-31.548 31.548v32.064a7.5 7.5 0 0015 0V191.87c0-9.125 7.423-16.548 16.548-16.548h32.064c8.556 0 15.516-6.96 15.516-15.516v-48.097c0-8.555-6.96-15.516-15.516-15.516z"></path>
  </symbol>
</svg>